<svg xmlns="http://www.w3.org/2000/svg" width="1em" height="1em" fill="none" viewBox="0 0 31 32" alt="BrightHR logo" class="size-10 mb-4"><path fill="#0057AD" d="M24.41 14.768q-.419-1.465-3.138-1.256l-.628.07c-1.116.07-2.58.21-4.115.418C21.62 10.724 30.2 6.33 30.27 6.33l-.28-1.116c-.139-.558-.836-.767-1.464-.488-1.674.837-9.904 5.3-13.879 7.88C17.506 6.05 20.156.68 20.156.54L18.97.261c-.558-.14-1.325.21-1.604.837-.976 2.022-3.069 6.556-5.37 11.717-1.325-2.092-3-3.836-3.976-4.812-.418-.419-1.185-.28-1.673.209l-.977.976s2.79 2.51 4.603 5.44c-2.65.349-5.16.698-7.044 1.116-.697.14-1.186.767-1.186 1.395l.14 1.255c1.465-.418 3.696-.767 6.207-1.116-2.232 1.674-4.533 3.627-6.905 5.79-.557.487-.627 1.185-.278 1.603l.767.837q3.975-3.66 7.741-6.486C7.672 23.276 6.137 27.392 5.3 30.53l-.07.14c-.278.976.768 1.534 1.674.906l.14-.07c.279-.21 7.742-5.3 11.926-9.067 4.324-3.905 5.928-6.137 5.44-7.671m-6.904 5.998c-2.511 2.231-6.347 5.09-8.928 6.974 1.116-3.278 2.65-7.184 4.255-11.02 2.86-.278 5.58-.557 7.462-.697l.628-.07c.558-.07.907 0 1.046 0-.14.349-.837 1.604-4.463 4.813"></path></svg>